<svg width="512" height="512" viewBox="0 0 512 512" fill="none" xmlns="http://www.w3.org/2000/svg">
<rect width="512" height="512" fill="white"/>
<path d="M162.136 163H131.8L100.312 229.944H99.8C99.8 228.749 99.8427 227.213 99.928 225.336C100.013 223.544 100.141 221.496 100.312 219.192C100.483 216.973 100.611 214.627 100.696 212.152C100.781 209.763 100.867 207.459 100.952 205.24V163H80.344V254.392H110.552L141.912 188.216H142.296C142.296 189.325 142.253 190.776 142.168 192.568C142.083 194.445 141.955 196.451 141.784 198.584C141.699 200.803 141.613 203.064 141.528 205.368C141.443 207.672 141.4 209.891 141.4 212.024V254.392H162.136V163ZM233.452 163L229.228 182.584H201.324L196.972 163H171.5L199.532 254.776H230.38L258.796 163H233.452ZM219.628 219.192C219.201 221.069 218.689 223.117 218.092 225.336C217.58 227.64 217.068 229.987 216.556 232.376C216.044 234.851 215.575 237.24 215.148 239.544C214.807 237.24 214.38 234.851 213.868 232.376C213.356 229.987 212.844 227.64 212.332 225.336C211.905 223.117 211.436 221.069 210.924 219.192L206.06 200.76H224.492L219.628 219.192ZM305.854 163L287.934 232.504H287.422C287.593 230.797 287.763 228.365 287.934 225.208C288.105 222.051 288.275 218.637 288.446 214.968C288.617 211.299 288.702 207.885 288.702 204.728V163H268.094V254.392H300.478L316.862 190.776H317.246L333.502 254.392H365.886V163H344.51V205.368C344.51 208.269 344.553 211.469 344.638 214.968C344.723 218.552 344.851 221.923 345.022 225.08C345.193 228.237 345.321 230.669 345.406 232.376H345.022L327.358 163H305.854ZM435.538 163H384.594V254.392H435.538V236.728H407.762V219.192H433.618V201.528H407.762V180.92H435.538V163Z" fill="black"/>
<path d="M162.136 350H131.8L100.312 283.056H99.8C99.8 284.251 99.8427 285.787 99.928 287.664C100.013 289.456 100.141 291.504 100.312 293.808C100.483 296.027 100.611 298.373 100.696 300.848C100.781 303.237 100.867 305.541 100.952 307.76V350H80.344V258.608H110.552L141.912 324.784H142.296C142.296 323.675 142.253 322.224 142.168 320.432C142.083 318.555 141.955 316.549 141.784 314.416C141.699 312.197 141.613 309.936 141.528 307.632C141.443 305.328 141.4 303.109 141.4 300.976V258.608H162.136V350ZM233.452 350L229.228 330.416H201.324L196.972 350H171.5L199.532 258.224H230.38L258.796 350H233.452ZM219.628 293.808C219.201 291.931 218.689 289.883 218.092 287.664C217.58 285.36 217.068 283.013 216.556 280.624C216.044 278.149 215.575 275.76 215.148 273.456C214.807 275.76 214.38 278.149 213.868 280.624C213.356 283.013 212.844 285.36 212.332 287.664C211.905 289.883 211.436 291.931 210.924 293.808L206.06 312.24H224.492L219.628 293.808ZM305.854 350L287.934 280.496H287.422C287.593 282.203 287.763 284.635 287.934 287.792C288.105 290.949 288.275 294.363 288.446 298.032C288.617 301.701 288.702 305.115 288.702 308.272V350H268.094V258.608H300.478L316.862 322.224H317.246L333.502 258.608H365.886V350H344.51V307.632C344.51 304.731 344.553 301.531 344.638 298.032C344.723 294.448 344.851 291.077 345.022 287.92C345.193 284.763 345.321 282.331 345.406 280.624H345.022L327.358 350H305.854ZM435.538 350H384.594V258.608H435.538V276.272H407.762V293.808H433.618V311.472H407.762V332.08H435.538V350Z" fill="black"/>
</svg>
